HIERARCHY
ROOT joint_0
{
	OFFSET 0.000000 0.000000 0.000000
	CHANNELS 6 Xposition Yposition Zposition Zrotation Yrotation Xrotation 
	JOINT joint_1
	{
		OFFSET 14.113007 -2.961990 123.953979
		CHANNELS 3 Zrotation Yrotation Xrotation
		JOINT joint_2
		{
			OFFSET 0.764000 -2.434006 113.871948
			CHANNELS 3 Zrotation Yrotation Xrotation
			JOINT joint_3
			{
				OFFSET 0.186996 -2.169998 113.753052
				CHANNELS 3 Zrotation Yrotation Xrotation
				JOINT joint_4
				{
					OFFSET 16.096001 -2.720001 160.853027
					CHANNELS 3 Zrotation Yrotation Xrotation
					JOINT joint_5
					{
						OFFSET 34.392006 -0.188995 92.567017
						CHANNELS 3 Zrotation Yrotation Xrotation
						End Site
						{
							OFFSET 0.000000 0.000000 0.000000
						}
					}
				}
				JOINT joint_6
				{
					OFFSET 9.183998 -36.684006 89.597046
					CHANNELS 3 Zrotation Yrotation Xrotation
					JOINT joint_7
					{
						OFFSET 0.486000 -164.365997 -28.984009
						CHANNELS 3 Zrotation Yrotation Xrotation
						JOINT joint_8
						{
							OFFSET 38.899002 -34.967010 -291.651978
							CHANNELS 3 Zrotation Yrotation Xrotation
							JOINT joint_9
							{
								OFFSET 41.714005 -45.890991 -258.857056
								CHANNELS 3 Zrotation Yrotation Xrotation
								End Site
								{
									OFFSET 0.000000 0.000000 0.000000
								}
							}
						}
					}
				}
				JOINT joint_10
				{
					OFFSET 8.867004 33.650002 90.817993
					CHANNELS 3 Zrotation Yrotation Xrotation
					JOINT joint_11
					{
						OFFSET 0.018997 164.299999 -29.368042
						CHANNELS 3 Zrotation Yrotation Xrotation
						JOINT joint_12
						{
							OFFSET 29.440994 30.887997 -293.216919
							CHANNELS 3 Zrotation Yrotation Xrotation
							JOINT joint_13
							{
								OFFSET 46.174011 54.490005 -256.422058
								CHANNELS 3 Zrotation Yrotation Xrotation
								End Site
								{
									OFFSET 0.000000 0.000000 0.000000
								}
							}
						}
					}
				}
			}
		}
	}
	JOINT joint_14
	{
		OFFSET -2.264000 -89.466995 -116.150024
		CHANNELS 3 Zrotation Yrotation Xrotation
		JOINT joint_15
		{
			OFFSET -16.400993 -17.452988 -493.781982
			CHANNELS 3 Zrotation Yrotation Xrotation
			JOINT joint_16
			{
				OFFSET -50.497004 -13.404022 -424.754013
				CHANNELS 3 Zrotation Yrotation Xrotation
				JOINT joint_17
				{
					OFFSET 198.546007 -19.341003 -89.309000
					CHANNELS 3 Zrotation Yrotation Xrotation
					End Site
					{
						OFFSET 0.000000 0.000000 0.000000
					}
				}
			}
		}
	}
	JOINT joint_18
	{
		OFFSET -0.867996 96.016006 -110.817993
		CHANNELS 3 Zrotation Yrotation Xrotation
		JOINT joint_19
		{
			OFFSET -10.130997 24.658998 -493.645020
			CHANNELS 3 Zrotation Yrotation Xrotation
			JOINT joint_20
			{
				OFFSET -48.871004 19.434999 -424.714005
				CHANNELS 3 Zrotation Yrotation Xrotation
				JOINT joint_21
				{
					OFFSET 195.579996 24.926001 -94.327003
					CHANNELS 3 Zrotation Yrotation Xrotation
					End Site
					{
						OFFSET 0.000000 0.000000 0.000000
					}
				}
			}
		}
	}
}
MOTION
Frames: 18
Frame Time: 0.016667
-2601.393799 879.387695 1142.574951 3.569474 -5.446718 -0.781792 -0.884135 -0.709126 0.530800 -0.860768 0.099992 -0.208900 -0.864719 -0.114546 0.070832 -0.532482 0.776568 1.413204 0.000000 0.000000 0.000000 -0.535559 1.930095 -1.067068 -0.183945 1.869941 -0.326825 0.329699 -1.730050 0.144575 0.000000 0.000000 0.000000 0.381277 0.083859 1.051125 0.455289 0.098891 1.341815 0.657248 1.470518 1.927797 0.000000 0.000000 0.000000 3.424776 3.340296 1.341426 3.451722 3.087200 0.855759 3.646747 -3.439656 1.299762 0.000000 0.000000 0.000000 -2.152118 2.614243 -0.411411 -2.217204 1.634055 0.154796 -2.362137 -3.600223 -0.676378 0.000000 0.000000 0.000000 
-2601.443848 879.334412 1142.538940 3.569809 -5.455063 -0.782111 -0.884437 -0.706432 0.537329 -0.861193 0.098149 -0.209743 -0.865060 -0.111485 0.071760 -0.531713 0.780944 1.411184 0.000000 0.000000 0.000000 -0.539696 1.930041 -1.037840 -0.187637 1.869672 -0.354843 0.330508 -1.730108 0.149583 0.000000 0.000000 0.000000 0.379629 0.088405 1.015007 0.459304 0.104576 1.377929 0.656638 1.471750 1.923017 0.000000 0.000000 0.000000 3.425018 3.337450 1.346815 3.451417 3.103740 0.855117 3.646924 -3.432861 1.300472 0.000000 0.000000 0.000000 -2.152751 2.609293 -0.407932 -2.216503 1.654055 0.152984 -2.362140 -3.593088 -0.677281 0.000000 0.000000 0.000000 
-2601.488525 879.285767 1142.501953 3.568100 -5.465421 -0.782930 -0.885772 -0.703542 0.548352 -0.862634 0.097239 -0.212807 -0.866445 -0.109123 0.073639 -0.530924 0.785099 1.409097 0.000000 0.000000 0.000000 -0.538423 1.929119 -1.009994 -0.191317 1.869496 -0.381419 0.330623 -1.728737 0.151850 0.000000 0.000000 0.000000 0.384408 0.093637 0.977016 0.463490 0.109830 1.413741 0.656596 1.473302 1.921077 0.000000 0.000000 0.000000 3.426061 3.338800 1.353173 3.452295 3.116754 0.853329 3.647945 -3.426961 1.301475 0.000000 0.000000 0.000000 -2.153111 2.606341 -0.403969 -2.215545 1.675535 0.150944 -2.361982 -3.585820 -0.678124 0.000000 0.000000 0.000000 
-2601.532227 879.239258 1142.463989 3.565189 -5.476578 -0.783925 -0.887103 -0.700345 0.561912 -0.864085 0.095971 -0.217317 -0.867847 -0.107142 0.076712 -0.529663 0.791522 1.405775 0.000000 0.000000 0.000000 -0.535197 1.928120 -0.982554 -0.195069 1.869601 -0.408155 0.330626 -1.727754 0.153003 0.000000 0.000000 0.000000 0.391318 0.099287 0.937508 0.467751 0.115132 1.450095 0.656590 1.474889 1.919306 0.000000 0.000000 0.000000 3.427573 3.341474 1.359857 3.453755 3.128823 0.851271 3.649421 -3.420657 1.302723 0.000000 0.000000 0.000000 -2.153260 2.603588 -0.399788 -2.214295 1.698552 0.148523 -2.361624 -3.577927 -0.678948 0.000000 0.000000 0.000000 
-2601.582764 879.189941 1142.426025 3.563735 -5.487028 -0.784301 -0.888069 -0.696870 0.573456 -0.865181 0.094689 -0.220563 -0.868875 -0.104371 0.078756 -0.529024 0.797473 1.404093 0.000000 0.000000 0.000000 -0.534520 1.926876 -0.954124 -0.198603 1.868962 -0.435651 0.331524 -1.728837 0.157430 0.000000 0.000000 0.000000 0.395713 0.104685 0.901852 0.471442 0.120514 1.484079 0.655841 1.475041 1.915030 0.000000 0.000000 0.000000 3.428480 3.341645 1.365082 3.454302 3.143409 0.851036 3.650340 -3.413187 1.303829 0.000000 0.000000 0.000000 -2.153824 2.599274 -0.396386 -2.213393 1.721739 0.146494 -2.361491 -3.568852 -0.680032 0.000000 0.000000 0.000000 
-2601.643311 879.139404 1142.387939 3.564214 -5.495219 -0.783027 -0.888203 -0.693564 0.580641 -0.865447 0.093479 -0.220958 -0.869073 -0.101769 0.079072 -0.528686 0.803018 1.403219 0.000000 0.000000 0.000000 -0.539783 1.925819 -0.925096 -0.201768 1.867386 -0.464040 0.333944 -1.733049 0.167857 0.000000 0.000000 0.000000 0.394838 0.110797 0.873284 0.473903 0.127305 1.513512 0.653076 1.471080 1.904243 0.000000 0.000000 0.000000 3.428841 3.335898 1.366428 3.453582 3.163513 0.854800 3.650762 -3.403884 1.304881 0.000000 0.000000 0.000000 -2.155035 2.591312 -0.395214 -2.212987 1.745310 0.145349 -2.361694 -3.558894 -0.681389 0.000000 0.000000 0.000000 
-2601.710449 879.086060 1142.348999 3.566687 -5.502506 -0.781236 -0.888688 -0.689787 0.586383 -0.866070 0.092351 -0.221376 -0.869646 -0.100017 0.079468 -0.528522 0.809575 1.402819 0.000000 0.000000 0.000000 -0.546005 1.925030 -0.895461 -0.204774 1.865874 -0.492978 0.337279 -1.739905 0.181061 0.000000 0.000000 0.000000 0.393519 0.117457 0.848149 0.475780 0.134604 1.540704 0.649417 1.465074 1.890835 0.000000 0.000000 0.000000 3.428424 3.327554 1.366280 3.451763 3.186013 0.860627 3.650463 -3.393024 1.305756 0.000000 0.000000 0.000000 -2.156815 2.581317 -0.394598 -2.213019 1.769615 0.144299 -2.362295 -3.548244 -0.683025 0.000000 0.000000 0.000000 
-2601.777832 879.027649 1142.310059 3.569722 -5.509109 -0.779866 -0.889396 -0.688099 0.593061 -0.866848 0.091258 -0.222882 -0.870362 -0.097600 0.079596 -0.529120 0.816884 1.404436 0.000000 0.000000 0.000000 -0.549895 1.924623 -0.864645 -0.207936 1.865179 -0.521674 0.340284 -1.746056 0.192998 0.000000 0.000000 0.000000 0.392432 0.123884 0.820051 0.478203 0.141731 1.572455 0.645993 1.459428 1.878328 0.000000 0.000000 0.000000 3.428010 3.319259 1.368092 3.450147 3.207071 0.863976 3.649971 -3.382017 1.306563 0.000000 0.000000 0.000000 -2.159025 2.571956 -0.393285 -2.213680 1.790609 0.143749 -2.363148 -3.535067 -0.685105 0.000000 0.000000 0.000000 
-2601.844482 878.960327 1142.272949 3.573741 -5.514995 -0.779370 -0.890804 -0.689336 0.600124 -0.868204 0.091668 -0.225033 -0.871711 -0.096793 0.081023 -0.529703 0.825454 1.406005 0.000000 0.000000 0.000000 -0.548505 1.925127 -0.833579 -0.211555 1.866408 -0.549760 0.342191 -1.748867 0.201807 0.000000 0.000000 0.000000 0.392967 0.130477 0.785086 0.481583 0.148916 1.612670 0.642802 1.453977 1.866921 0.000000 0.000000 0.000000 3.427499 3.312523 1.373926 3.448960 3.223828 0.862286 3.649023 -3.370544 1.307221 0.000000 0.000000 0.000000 -2.161974 2.563695 -0.390348 -2.215329 1.807268 0.143250 -2.364537 -3.518318 -0.687899 0.000000 0.000000 0.000000 
-2601.912109 878.886719 1142.235962 3.578803 -5.519936 -0.779421 -0.892608 -0.692199 0.607179 -0.869914 0.091742 -0.227201 -0.873423 -0.096671 0.082918 -0.530534 0.836825 1.408239 0.000000 0.000000 0.000000 -0.544612 1.926561 -0.801784 -0.215465 1.869059 -0.577977 0.343719 -1.750978 0.209040 0.000000 0.000000 0.000000 0.393984 0.137370 0.746245 0.485568 0.156423 1.657629 0.639818 1.448781 1.856396 0.000000 0.000000 0.000000 3.426952 3.305634 1.381990 3.447954 3.238909 0.857838 3.647797 -3.358485 1.307817 0.000000 0.000000 0.000000 -2.165424 2.555341 -0.386426 -2.217592 1.821321 0.142941 -2.366230 -3.499043 -0.691162 0.000000 0.000000 0.000000 
-2601.983887 878.812744 1142.193970 3.584162 -5.524939 -0.779260 -0.894976 -0.694860 0.613846 -0.872214 0.090998 -0.228706 -0.875677 -0.094847 0.083047 -0.531867 0.845200 1.411787 0.000000 0.000000 0.000000 -0.540561 1.926947 -0.767733 -0.219265 1.870656 -0.606729 0.345347 -1.754026 0.215861 0.000000 0.000000 0.000000 0.396117 0.143933 0.706723 0.489842 0.163451 1.702867 0.637514 1.445167 1.847823 0.000000 0.000000 0.000000 3.426114 3.297591 1.388822 3.446427 3.255677 0.855611 3.646401 -3.345379 1.308433 0.000000 0.000000 0.000000 -2.168820 2.547224 -0.382463 -2.219859 1.834314 0.142126 -2.367893 -3.478998 -0.694508 0.000000 0.000000 0.000000 
-2602.057617 878.739441 1142.145996 3.589155 -5.529971 -0.778519 -0.898049 -0.697517 0.619265 -0.875203 0.090799 -0.230425 -0.878636 -0.093288 0.084423 -0.531947 0.853760 1.412044 0.000000 0.000000 0.000000 -0.536334 1.926014 -0.732661 -0.222991 1.870946 -0.635556 0.346491 -1.756739 0.220017 0.000000 0.000000 0.000000 0.401228 0.150505 0.664940 0.494689 0.170060 1.746990 0.636793 1.444957 1.844175 0.000000 0.000000 0.000000 3.425372 3.287595 1.392745 3.444537 3.275590 0.857993 3.645390 -3.331930 1.309244 0.000000 0.000000 0.000000 -2.171664 2.540053 -0.378306 -2.221691 1.845289 0.139522 -2.369277 -3.459340 -0.697669 0.000000 0.000000 0.000000 
-2602.136475 878.665588 1142.093994 3.594403 -5.534755 -0.777595 -0.901490 -0.700055 0.624317 -0.878586 0.089638 -0.231591 -0.881951 -0.090670 0.084418 -0.532218 0.861152 1.412804 0.000000 0.000000 0.000000 -0.532221 1.924310 -0.695227 -0.226702 1.870427 -0.665305 0.347692 -1.760131 0.223779 0.000000 0.000000 0.000000 0.406598 0.157225 0.621992 0.499856 0.176825 1.791409 0.636684 1.445516 1.843074 0.000000 0.000000 0.000000 3.424377 3.276116 1.395476 3.442166 3.296996 0.862423 3.644203 -3.317076 1.310109 0.000000 0.000000 0.000000 -2.174645 2.532560 -0.374036 -2.223667 1.855542 0.136410 -2.370753 -3.438456 -0.701031 0.000000 0.000000 0.000000 
-2602.223389 878.592773 1142.032959 3.600393 -5.539098 -0.776410 -0.906052 -0.704042 0.629319 -0.883026 0.089459 -0.233525 -0.886360 -0.089003 0.085788 -0.531544 0.867050 1.411059 0.000000 0.000000 0.000000 -0.526443 1.923123 -0.660137 -0.230254 1.870692 -0.695628 0.350297 -1.767221 0.232184 0.000000 0.000000 0.000000 0.413593 0.165661 0.578483 0.504419 0.184899 1.834693 0.635198 1.442962 1.837906 0.000000 0.000000 0.000000 3.423036 3.264130 1.398026 3.439479 3.317401 0.866390 3.642535 -3.300392 1.310937 0.000000 0.000000 0.000000 -2.178150 2.521940 -0.370945 -2.225868 1.869450 0.134890 -2.372305 -3.415482 -0.704694 0.000000 0.000000 0.000000 
-2602.324707 878.520264 1141.969971 3.606578 -5.543936 -0.774791 -0.910952 -0.708414 0.633994 -0.887770 0.090620 -0.234952 -0.891115 -0.088597 0.085998 -0.531026 0.867839 1.409694 0.000000 0.000000 0.000000 -0.520675 1.922387 -0.623850 -0.233859 1.871398 -0.729585 0.354974 -1.779334 0.247939 0.000000 0.000000 0.000000 0.418221 0.176302 0.533602 0.508230 0.195455 1.880046 0.631064 1.433544 1.825924 0.000000 0.000000 0.000000 3.421625 3.252338 1.400541 3.436822 3.336597 0.869388 3.640596 -3.280766 1.311929 0.000000 0.000000 0.000000 -2.182421 2.506968 -0.369762 -2.228315 1.890699 0.136048 -2.373942 -3.389520 -0.708778 0.000000 0.000000 0.000000 
-2602.434082 878.449768 1141.897949 3.613229 -5.548360 -0.773090 -0.916596 -0.714191 0.639484 -0.893208 0.092076 -0.237671 -0.896567 -0.087996 0.087215 -0.529691 0.865846 1.406153 0.000000 0.000000 0.000000 -0.513497 1.922114 -0.589881 -0.237264 1.872781 -0.764011 0.361114 -1.795241 0.268613 0.000000 0.000000 0.000000 0.422981 0.188440 0.488401 0.511413 0.207362 1.924001 0.625563 1.420524 1.810520 0.000000 0.000000 0.000000 3.419944 3.240078 1.402894 3.433927 3.354710 0.872069 3.638271 -3.259541 1.312904 0.000000 0.000000 0.000000 -2.187383 2.488909 -0.369531 -2.231142 1.915701 0.138653 -2.375816 -3.361341 -0.713257 0.000000 0.000000 0.000000 
-2602.542480 878.379456 1141.802979 3.619816 -5.550676 -0.771404 -0.921723 -0.721840 0.644471 -0.898155 0.090272 -0.238832 -0.901436 -0.085217 0.087811 -0.528187 0.869162 1.402209 0.000000 0.000000 0.000000 -0.507614 1.923744 -0.562680 -0.239978 1.875750 -0.792909 0.367822 -1.813447 0.290291 0.000000 0.000000 0.000000 0.429421 0.201704 0.449706 0.513330 0.219859 1.958274 0.619282 1.405832 1.792719 0.000000 0.000000 0.000000 3.418391 3.226559 1.405351 3.431233 3.370174 0.874023 3.635802 -3.235613 1.314083 0.000000 0.000000 0.000000 -2.192543 2.469803 -0.369219 -2.234276 1.937459 0.141647 -2.377541 -3.328688 -0.718236 0.000000 0.000000 0.000000 
-2602.696045 878.308716 1141.683960 3.623565 -5.555079 -0.764239 -0.926877 -0.752888 0.641955 -0.902577 0.083235 -0.239173 -0.905651 -0.080292 0.086969 -0.526490 0.904078 1.397745 0.000000 0.000000 0.000000 -0.495260 1.922347 -0.509663 -0.248600 1.877719 -0.857929 0.371967 -1.807662 0.322362 0.000000 0.000000 0.000000 0.416574 0.212290 0.358772 0.524065 0.234729 2.064627 0.615192 1.414478 1.759339 0.000000 0.000000 0.000000 3.417962 3.213328 1.402533 3.429582 3.384035 0.873895 3.633763 -3.206318 1.315979 0.000000 0.000000 0.000000 -2.197189 2.451654 -0.376412 -2.237283 1.955662 0.147614 -2.378244 -3.288808 -0.723641 0.000000 0.000000 0.000000 
